PathFileType	4	(X/Y/Z)	F:\MotionCapture\20160217\3\Generated_files\EMG_test04-Dynamic.trc
DataRate	CameraRate	NumFrames	NumMarkers	Units	OrigDataRate	OrigDataStartFrame	OrigNumFrames
120.00	120.00	       4	39	mm	120.00	446	       713
Frame#	Time	Top.Head			Front.Head			Rear.Head			R.Shoulder			R.Offset			R.Elbow			R.Wrist			L.Shoulder			L.Elbow			L.Wrist			R.ASIS			L.ASIS			V.Sacral			R.Thigh			R.Knee			R.Shank			R.Ankle			R.Heel			R.Toe			L.Thigh			L.Knee			L.Shank			L.Ankle			L.Heel			L.Toe			R1			R2			R3			R4			R5			R6			R7			L1			L2			L3			L4			L5			L6			L7			V_Mid_ASIS			V_Pelvis_Origin			V_R.Hip_JC			V_L.Hip_JC			V_R.Knee_JC			V_L.Knee_JC			V_R.Ankle_JC			V_L.Ankle_JC			V_Mid_Hip			V_Mid_Shoulder			V_R.Hand			V_L.Hand			V_R.Toe_Offset_Static			V_L.Toe_Offset_Static			V_R.Toe_Offset			V_L.Toe_Offset			
		X1	Y1	Z1	X2	Y2	Z2	X3	Y3	Z3	X4	Y4	Z4	X5	Y5	Z5	X6	Y6	Z6	X7	Y7	Z7	X8	Y8	Z8	X9	Y9	Z9	X10	Y10	Z10	X11	Y11	Z11	X12	Y12	Z12	X13	Y13	Z13	X14	Y14	Z14	X15	Y15	Z15	X16	Y16	Z16	X17	Y17	Z17	X18	Y18	Z18	X19	Y19	Z19	X20	Y20	Z20	X21	Y21	Z21	X22	Y22	Z22	X23	Y23	Z23	X24	Y24	Z24	X25	Y25	Z25	X26	Y26	Z26	X27	Y27	Z27	X28	Y28	Z28	X29	Y29	Z29	X30	Y30	Z30	X31	Y31	Z31	X32	Y32	Z32	X33	Y33	Z33	X34	Y34	Z34	X35	Y35	Z35	X36	Y36	Z36	X37	Y37	Z37	X38	Y38	Z38	X39	Y39	Z39	

446	3.708	-810.88501	155.68578	1704.47534	-917.20880	150.96384	1615.33459	-698.99738	145.65623	1642.37195	-728.09912	336.50476	1397.27246	-610.25049	51.09990	1265.98962	-620.90930	427.24591	1092.59119	-646.20129	449.53134	830.12024	-777.78217	-63.35228	1415.43665	-860.23694	-209.65327	1126.03369	-1081.37256	-178.58839	995.46259	-797.63037	257.66544	923.84674	-801.23444	-29.26044	923.22650	-575.16901	116.48256	928.03125	-956.78168	239.17957	612.88354	-926.25378	278.98190	485.64233	-957.93652	204.21051	255.22368	-922.46808	266.38361	82.40041	-864.44684	196.82986	44.80344	-1059.93469	257.77182	72.24541	-787.70276	32.72269	592.25000	-663.59851	-16.75213	447.04352	-641.83942	65.32111	310.91724	-518.97772	8.14131	65.61913	-451.54041	64.83277	53.72431	-658.12616	16.57944	36.95702	-1100.48816	246.86972	88.64160	-1069.37012	222.26631	77.48924	-981.39172	181.13744	79.37047	-913.47986	171.75441	54.34566	-891.06812	243.27948	48.72787	-966.65375	282.58722	52.84069	-1025.93518	292.72495	57.92160	-700.71918	40.90392	30.35113	-669.48828	55.70367	39.70961	-574.14795	99.64388	43.29094	-491.73297	97.43301	49.29571	-488.12955	29.53669	44.00862	-552.61847	-2.03187	32.59306	-616.47742	-16.82575	34.62129																																																	-754.15051	83.57925	-1.57587	-849.50537	89.47739	-32.74487	
447	3.717	-823.82275	156.67435	1701.75488	-930.03259	152.14166	1612.37085	-712.25751	146.65982	1639.16260	-740.55914	337.98428	1394.70313	-621.67603	52.54279	1263.91528	-629.13025	427.02524	1091.85608	-646.69305	449.92548	829.01324	-790.54944	-62.11946	1412.75952	-878.22797	-209.29944	1126.25598	-1103.15088	-176.81531	1002.49237	-809.52155	258.51434	920.78479	-811.56415	-30.04911	920.07355	-587.33319	117.76624	925.94617	-969.20270	238.60384	609.96466	-941.14532	278.23868	484.31073	-982.41553	205.43568	255.76811	-955.07996	270.52222	81.88857	-897.57861	200.76366	41.27648	-1093.63245	259.70319	77.68445	-795.74121	31.89519	589.66565	-669.40063	-17.25624	446.08005	-645.69806	65.44366	310.18356	-519.46729	8.42780	66.42825	-452.22446	65.17708	55.30383	-658.38324	16.38682	36.95115	-1135.15210	248.60355	94.02090	-1102.32312	224.64038	82.29852	-1013.91614	184.14658	80.29575	-946.83856	175.64131	52.46036	-925.49457	247.46887	46.52240	-1000.16412	283.11664	51.33614	-1059.89368	294.93561	62.57280	-700.93994	40.39799	30.38246	-669.57697	55.54093	39.75775	-575.13287	99.09892	43.95965	-492.05319	97.42455	50.32384	-482.02615	25.89997	49.48058	-552.58960	-2.01347	32.66305	-616.45306	-16.83362	34.57745																																																	-1038.79773	303.74008	72.14114	-1092.54932	260.08173	79.40146	-753.45099	83.25026	-1.12171	-849.50165	89.40965	-32.75645	
448	3.725	-836.66583	157.85390	1698.95605	-943.11566	153.15993	1609.61804	-724.28448	147.89052	1636.94519	-753.26385	339.29504	1392.24707	-634.56628	53.84072	1261.10388	-636.76532	426.81567	1090.48621	-651.69904	451.55200	827.85364	-802.86969	-60.68805	1409.85913	-897.38971	-208.77655	1126.24536	-1124.37036	-174.85344	1009.69177	-822.26447	259.29639	917.92908	-823.63062	-28.77061	917.76404	-598.85699	118.51880	924.11224	-981.07520	238.28021	606.70996	-955.93182	277.16556	483.29147	-1006.00916	206.14108	256.30557	-987.25952	273.82349	82.09279	-932.39935	205.66670	38.22371	-1126.00745	261.26657	83.35207	-803.87921	31.11341	587.02661	-675.05225	-17.12491	444.98145	-649.51019	65.23462	308.94659	-518.75220	8.25115	67.75301	-452.63232	65.37426	57.03651	-658.75208	16.39166	36.88749	-1166.47070	249.14078	101.49328	-1134.05420	225.95000	88.00002	-1045.25159	186.82823	81.98241	-979.39105	179.11404	51.41905	-958.37634	251.65430	45.99831	-1033.51172	286.03076	53.91364	-1093.78503	297.42346	67.28795	-700.79944	40.41436	30.13876	-669.60999	55.54942	39.69847	-574.95593	99.19287	44.48362	-492.47797	97.64843	52.04601	-482.40073	26.15351	51.22303	-552.71594	-2.11171	32.81594	-616.84271	-17.28458	34.48426																																																	-752.16156	82.19893	-0.41956	-849.33002	89.17149	-32.86713	-1124.46387	324.11893	26.18197	
449	3.733	-849.78137	159.02432	1696.23364	-956.04303	154.51541	1606.80615	-737.42694	149.34926	1634.34265	-766.32269	340.84351	1389.70764	-647.04358	55.25784	1258.80835	-645.32355	426.97845	1089.63538	-651.24982	450.89709	826.29291	-815.37433	-59.01947	1407.15588	-913.33234	-207.87782	1126.64636	-1144.93909	-172.71477	1016.43109	-834.94489	260.09128	915.28558	-834.48749	-29.28462	914.92230	-611.43872	119.56753	921.91571	-993.02594	237.59326	603.73975	-969.70953	276.72287	482.26718	-1028.51477	207.16125	257.44901	-1018.43939	276.89188	83.12861	-963.28387	208.85231	36.72490	-1156.76355	262.72171	89.57130	-812.63647	29.76223	584.53223	-680.90253	-17.11384	443.93347	-654.03827	65.09795	308.37286	-519.46320	8.26335	69.08287	-452.86319	64.91853	59.36993	-657.00989	16.15336	35.94744	-1196.44202	249.97969	108.95834	-1164.23438	227.21263	94.38910	-1075.39539	188.94827	84.42176	-1011.06421	182.57213	50.96839	-990.88873	255.15901	45.39149	-1066.21973	289.06049	56.49955	-1126.54041	299.78937	73.32527	-700.75464	40.28159	30.02500	-669.64917	55.45279	39.69940	-575.17725	99.00143	45.05490	-492.52615	97.61551	53.44229	-477.34369	21.57014	55.93409	-552.98657	-2.46699	33.31486	-616.53864	-17.05713	34.18801																																																	-750.92432	81.63527	-0.03915	-848.70233	88.81918	-33.04408	-1105.78162	307.96194	80.68761	
